HIERARCHY
ROOT Hips
{
	OFFSET 0.000000 0.000000 0.000000
	CHANNELS 6 Xposition Yposition Zposition Xrotation Yrotation Zrotation
	JOINT LeftUpLeg_virtual
	{
		OFFSET 0.000000 0.000000 0.000000
		CHANNELS 3 Xrotation Yrotation Zrotation
		JOINT LeftUpLeg
		{
			OFFSET 15.427100 -6.655098 0.678600
			CHANNELS 3 Xrotation Yrotation Zrotation
			JOINT LeftLeg
			{
				OFFSET 4.081073 -39.591068 13.024000
				CHANNELS 3 Xrotation Yrotation Zrotation
				JOINT LeftFoot
				{
					OFFSET -4.081074 -37.707932 -15.979700
					CHANNELS 3 Xrotation Yrotation Zrotation
					JOINT LeftToeBase
					{
						OFFSET 5.346399 -15.068900 20.645000
						CHANNELS 3 Xrotation Yrotation Zrotation
						JOINT LeftToe_End
						{
							OFFSET 2.754700 0.931300 11.300900
							CHANNELS 3 Xrotation Yrotation Zrotation
							End Site
							{
								OFFSET 0 0 0
							}
						}
					}
				}
			}
		}
	}
	JOINT RightUpLeg_virtual
	{
		OFFSET 0.000000 0.000000 0.000000
		CHANNELS 3 Xrotation Yrotation Zrotation
		JOINT RightUpLeg
		{
			OFFSET -15.569500 -6.655098 0.678600
			CHANNELS 3 Xrotation Yrotation Zrotation
			JOINT RightLeg
			{
				OFFSET -4.081825 -39.591045 13.023800
				CHANNELS 3 Xrotation Yrotation Zrotation
				JOINT RightFoot
				{
					OFFSET 4.081824 -37.707954 -15.979600
					CHANNELS 3 Xrotation Yrotation Zrotation
					JOINT RightToeBase
					{
						OFFSET -5.346400 -15.068900 20.645000
						CHANNELS 3 Xrotation Yrotation Zrotation
						JOINT RightToe_End
						{
							OFFSET -2.754700 0.931300 11.300900
							CHANNELS 3 Xrotation Yrotation Zrotation
							End Site
							{
								OFFSET 0 0 0
							}
						}
					}
				}
			}
		}
	}
	JOINT Spine_virtual
	{
		OFFSET 0.000000 0.000000 0.000000
		CHANNELS 3 Xrotation Yrotation Zrotation
		JOINT Spine
		{
			OFFSET -0.279200 12.230698 -2.892100
			CHANNELS 3 Xrotation Yrotation Zrotation
			JOINT Spine1
			{
				OFFSET -0.232667 10.192268 -1.242267
				CHANNELS 3 Xrotation Yrotation Zrotation
				JOINT Spine1_split
				{
					OFFSET -0.232667 10.192268 -1.242267
					CHANNELS 3 Xrotation Yrotation Zrotation
					JOINT Spine2
					{
						OFFSET -0.232667 10.192268 -1.242267
						CHANNELS 3 Xrotation Yrotation Zrotation
						JOINT Neck_virtual
						{
							OFFSET 0.000000 0.000000 0.000000
							CHANNELS 3 Xrotation Yrotation Zrotation
							JOINT Neck
							{
								OFFSET -0.418800 17.814194 8.416900
								CHANNELS 3 Xrotation Yrotation Zrotation
								JOINT Head
								{
									OFFSET 0.000000 7.031097 3.806800
									CHANNELS 3 Xrotation Yrotation Zrotation
									JOINT HeadTop_End
									{
										OFFSET 0.000000 24.646606 12.978600
										CHANNELS 3 Xrotation Yrotation Zrotation
										End Site
										{
											OFFSET 0 0 0
										}
									}
								}
							}
						}
						JOINT LeftShoulder_virtual
						{
							OFFSET 0.000000 0.000000 0.000000
							CHANNELS 3 Xrotation Yrotation Zrotation
							JOINT LeftShoulder
							{
								OFFSET 8.476499 7.247704 -3.868750
								CHANNELS 3 Xrotation Yrotation Zrotation
								JOINT LeftShoulder_split
								{
									OFFSET 8.476499 7.247704 -3.868750
									CHANNELS 3 Xrotation Yrotation Zrotation
									JOINT LeftArm
									{
										OFFSET 9.308998 -2.777710 0.208600
										CHANNELS 3 Xrotation Yrotation Zrotation
										JOINT LeftForeArm
										{
											OFFSET 29.972298 0.000000 0.000000
											CHANNELS 3 Xrotation Yrotation Zrotation
											JOINT LeftHand
											{
												OFFSET 26.026505 0.000000 0.000000
												CHANNELS 3 Xrotation Yrotation Zrotation
												End Site
												{
													OFFSET 0 0 0
												}
											}
										}
									}
								}
							}
						}
						JOINT RightShoulder_virtual
						{
							OFFSET 0.000000 0.000000 0.000000
							CHANNELS 3 Xrotation Yrotation Zrotation
							JOINT RightShoulder
							{
								OFFSET -7.570500 7.247704 -3.868750
								CHANNELS 3 Xrotation Yrotation Zrotation
								JOINT RightShoulder_split
								{
									OFFSET -7.570500 7.247704 -3.868750
									CHANNELS 3 Xrotation Yrotation Zrotation
									JOINT RightArm
									{
										OFFSET -9.308998 -2.777710 0.208500
										CHANNELS 3 Xrotation Yrotation Zrotation
										JOINT RightForeArm
										{
											OFFSET -29.972300 0.000000 0.000000
											CHANNELS 3 Xrotation Yrotation Zrotation
											JOINT RightHand
											{
												OFFSET -26.026505 0.000000 0.000000
												CHANNELS 3 Xrotation Yrotation Zrotation
												End Site
												{
													OFFSET 0 0 0
												}
											}
										}
									}
								}
							}
						}
					}
				}
			}
		}
	}
}
MOTION
Frames: 9
Frame Time: 0.03333333
2.098157 92.086632 -2.336494 0.000000 0.000000 0.000000 -0.616973 -2.187768 -3.057754 -26.168897 -6.854307 6.326132 47.751683 -3.362372 -1.997699 15.301283 -2.614836 10.031019 -14.530874 -0.888056 1.280436 0.000000 0.000000 0.000000 -0.256406 -0.596876 -3.386107 -13.477797 -13.851914 7.934334 35.883475 8.200662 4.936991 4.081040 -1.637471 -5.378940 -20.797320 1.016567 3.717111 0.000000 0.000000 0.000000 -4.719947 4.011420 -2.427344 6.898230 1.830135 0.314244 -2.537498 -0.748814 1.885325 -0.193493 1.042699 -0.784172 0.000000 0.000000 0.000000 -2.708627 -0.184750 1.622200 -2.811344 -2.588425 2.196551 3.104051 1.182457 2.900529 0.000000 0.000000 0.000000 -2.372463 0.031979 1.840451 0.472828 2.123678 -0.970787 1.936623 -2.017900 0.530331 0.283600 2.114669 -71.462999 24.028237 -15.556104 1.494146 0.000000 0.000000 0.000000 -1.716803 -0.153191 1.697432 0.807195 4.361236 5.663465 -3.303799 0.594373 -2.257077 -6.772360 7.148715 78.084724 12.048356 18.976354 -3.245129 0.000000 0.000000 0.000000 
2.134874 92.215324 -0.156105 0.000000 0.000000 0.000000 -0.784942 -2.622004 -3.129150 -27.412479 -5.400976 5.787627 42.215699 -2.322107 -2.479462 15.782115 -2.162494 12.184721 -14.670645 -0.880663 1.481608 0.000000 0.000000 0.000000 0.359060 -0.980468 -3.473808 -13.441840 -13.185439 7.477311 36.476256 8.825190 5.089926 5.710658 -1.048595 -5.814550 -22.217137 0.731491 4.081377 0.000000 0.000000 0.000000 -3.879823 3.202318 -3.052467 6.901296 2.006776 0.531515 -2.577862 -0.675478 1.858111 0.003807 0.636217 -0.492796 0.000000 0.000000 0.000000 -2.617232 -0.159435 1.602348 -2.672487 -2.427149 1.756809 3.412056 1.180837 2.997536 0.000000 0.000000 0.000000 -2.620328 0.112729 1.814889 0.542384 2.645389 -1.201673 1.153529 -2.359478 -0.187625 0.587375 2.183355 -71.282586 24.118822 -16.174255 1.730997 0.000000 0.000000 0.000000 -1.832840 -0.123943 1.718542 0.826350 4.394614 5.188138 -2.810150 0.800152 -2.309016 -7.788538 7.502496 77.973303 12.128374 18.803465 -3.464024 0.000000 0.000000 0.000000 
2.408475 92.697594 2.562550 0.000000 0.000000 0.000000 -0.699149 -2.896594 -3.165270 -28.099304 -3.853498 5.057317 33.176367 -1.659996 -2.664998 19.489053 -1.637167 11.399757 -15.858096 -0.827761 1.168850 0.000000 0.000000 0.000000 0.781648 -1.566729 -3.500384 -12.303072 -12.696482 6.577992 36.719415 9.905805 5.099194 6.804505 0.535663 -6.233508 -25.051257 0.607087 4.248666 0.000000 0.000000 0.000000 -2.743154 2.212994 -3.598638 6.857869 2.130972 1.024392 -2.638184 -0.576471 1.847347 0.568605 0.317251 -0.141050 0.000000 0.000000 0.000000 -2.549138 -0.116597 1.595030 -2.818596 -1.900875 0.820119 3.679726 1.331393 2.740025 0.000000 0.000000 0.000000 -2.861158 0.218626 1.785597 0.610047 3.904091 -2.041519 -0.112232 -2.970667 -0.889196 1.194267 2.710836 -71.602246 24.561579 -16.492475 2.200036 0.000000 0.000000 0.000000 -1.888788 -0.099852 1.645839 0.897928 4.363160 4.306203 -2.418112 0.892989 -1.963187 -9.234297 8.925069 77.374855 12.074256 18.603275 -3.554921 0.000000 0.000000 0.000000 
2.917895 93.207077 5.416954 0.000000 0.000000 0.000000 -0.539562 -3.073669 -3.073551 -28.218939 -2.211934 4.573421 23.260771 -1.549602 -2.719667 25.840276 -1.335372 7.964425 -19.232976 -0.755891 1.020371 0.000000 0.000000 0.000000 0.943553 -2.390564 -3.467927 -10.132297 -12.578347 5.373634 36.266665 11.185210 5.100563 6.493099 2.566801 -6.890072 -27.925254 0.734534 4.184371 0.000000 0.000000 0.000000 -1.827974 1.225746 -3.998796 6.777536 2.171349 1.692058 -2.683827 -0.516940 1.889142 1.099577 0.074605 0.232347 0.000000 0.000000 0.000000 -2.534845 -0.117535 1.662910 -3.295069 -1.076749 -0.380906 3.894522 1.585631 2.213862 0.000000 0.000000 0.000000 -3.051828 0.282282 1.817036 0.705518 5.734642 -3.318020 -1.395756 -3.671370 -1.183125 2.171681 3.534558 -72.186473 25.160463 -16.323662 2.753967 0.000000 0.000000 0.000000 -1.935641 -0.143429 1.546177 1.011717 4.238149 3.090968 -2.141403 0.831899 -1.440300 -10.676829 10.817654 76.682868 11.865129 18.820836 -3.513847 0.000000 0.000000 0.000000 
3.487662 93.416489 8.456196 0.000000 0.000000 0.000000 -0.632137 -3.390073 -2.866999 -28.451496 -0.418304 4.252854 15.255303 -2.207931 -2.825011 33.137506 -1.734926 3.092850 -23.748486 -0.594937 1.284703 0.000000 0.000000 0.000000 0.829962 -3.227531 -3.420422 -7.002982 -13.080701 4.053450 35.009852 12.304095 5.130536 4.249109 4.450775 -7.643940 -29.833037 1.054745 3.869084 0.000000 0.000000 0.000000 -1.089044 0.521492 -4.223958 6.664654 2.131240 2.334150 -2.651579 -0.527793 2.019367 1.113343 0.170201 0.432030 0.000000 0.000000 0.000000 -2.575448 -0.199832 1.865137 -4.066889 -0.124688 -1.524089 4.013761 1.873409 1.564783 0.000000 0.000000 0.000000 -3.176624 0.270519 1.967200 0.864013 7.773766 -4.725074 -2.206670 -4.220762 -1.076178 3.281083 4.265532 -72.834132 25.629078 -15.621737 3.181902 0.000000 0.000000 0.000000 -1.996375 -0.269244 1.511743 1.131642 4.073684 1.723107 -1.836867 0.803601 -0.953512 -11.833460 12.493087 76.350156 11.500089 19.697055 -3.344404 0.000000 0.000000 0.000000 
4.048761 92.945976 11.992397 0.000000 0.000000 0.000000 -1.030749 -4.102348 -2.596795 -28.824921 1.825939 3.824209 10.856178 -3.045685 -3.329815 38.143751 -2.034288 -0.508897 -26.728309 -0.245628 1.322143 0.000000 0.000000 0.000000 0.322701 -3.641202 -3.369657 -3.308410 -13.988026 2.665646 33.335247 13.118004 5.200378 0.207903 5.761607 -7.868468 -30.019983 1.446011 3.344350 0.000000 0.000000 0.000000 -0.910581 -0.174761 -4.242799 6.518669 2.008148 2.722025 -2.519604 -0.600846 2.222315 0.851510 0.467668 0.431246 0.000000 0.000000 0.000000 -2.651012 -0.366263 2.164819 -5.028334 0.805646 -2.306541 4.001546 2.153151 0.967903 0.000000 0.000000 0.000000 -3.222393 0.185495 2.231218 1.067848 9.496398 -5.919080 -2.460242 -4.686240 -0.729836 4.304229 4.629516 -73.407069 25.702463 -14.288796 3.325947 0.000000 0.000000 0.000000 -2.069511 -0.451690 1.603995 1.228721 3.955779 0.377640 -1.420911 0.763786 -0.526626 -12.422393 13.348783 76.747147 11.044175 20.999744 -3.088963 0.000000 0.000000 0.000000 
4.455914 91.775436 16.078863 0.000000 0.000000 0.000000 -1.710032 -5.111750 -2.276653 -29.226195 4.924952 3.288291 10.304413 -3.712312 -4.069846 38.544697 -1.376533 -1.292399 -27.336630 0.133210 1.589795 0.000000 0.000000 0.000000 -0.417581 -3.761424 -3.147579 0.560602 -14.748556 1.266064 31.935530 13.644743 5.327121 -4.979660 6.213982 -7.224800 -29.506451 1.742256 2.696543 0.000000 0.000000 0.000000 -1.425020 -0.610737 -4.075140 6.293105 1.819409 2.684342 -2.306534 -0.714607 2.442779 0.710535 0.993912 0.168999 0.000000 0.000000 0.000000 -2.669136 -0.560602 2.492039 -6.017898 1.638499 -2.540123 3.876185 2.393085 0.562502 0.000000 0.000000 0.000000 -3.186237 0.079337 2.537721 1.280725 10.552555 -6.678660 -2.213602 -5.075169 -0.132001 5.016033 4.490989 -73.861406 25.401084 -12.444241 3.232126 0.000000 0.000000 0.000000 -2.137144 -0.632947 1.774395 1.245969 3.861649 -0.766540 -1.015428 0.653041 -0.216684 -12.395192 13.081287 77.832348 10.585811 22.068879 -2.830458 0.000000 0.000000 0.000000 
4.656174 90.342148 20.336214 0.000000 0.000000 0.000000 -2.556886 -5.957795 -1.916425 -29.502671 8.732437 2.386892 13.100634 -4.790705 -4.873422 35.023298 -0.396938 0.834894 -26.409123 0.386732 2.308074 0.000000 0.000000 0.000000 -1.312136 -3.517408 -2.712098 4.227581 -14.799731 0.085246 31.120821 13.748081 5.201410 -10.648296 5.739570 -5.991519 -29.089339 1.867231 2.024333 0.000000 0.000000 0.000000 -2.254786 -0.554624 -3.676561 5.944088 1.596239 2.202034 -2.034031 -0.789990 2.625333 0.705401 1.568983 -0.142008 0.000000 0.000000 0.000000 -2.566466 -0.684129 2.756427 -6.851418 2.222962 -2.194501 3.661602 2.524339 0.409792 0.000000 0.000000 0.000000 -3.050678 0.026647 2.784470 1.476535 10.747834 -6.910954 -1.696012 -5.129895 0.373482 5.076647 3.881352 -74.326802 24.952298 -10.510927 3.039782 0.000000 0.000000 0.000000 -2.071585 -0.710520 1.955792 1.179939 3.819940 -1.609577 -0.757459 0.491920 0.155012 -11.663338 12.008277 79.347086 10.237723 22.365444 -2.648461 0.000000 0.000000 0.000000 
4.811389 89.045433 24.637743 0.000000 0.000000 0.000000 -3.332796 -6.647311 -1.436928 -29.711422 12.839343 1.240127 17.920439 -6.724915 -5.808164 29.823434 -0.384317 5.032294 -26.134563 0.309175 3.548790 0.000000 0.000000 0.000000 -2.074755 -3.105180 -2.049515 7.394412 -13.557803 -0.582194 31.022815 13.197122 4.851436 -15.651715 4.489897 -5.111464 -28.831536 1.914673 1.485905 0.000000 0.000000 0.000000 -3.200636 -0.014678 -3.003828 5.356654 1.335346 1.300814 -1.735241 -0.778268 2.753683 0.895207 1.679994 -0.378026 0.000000 0.000000 0.000000 -2.336991 -0.686930 2.903376 -7.389822 2.524859 -1.425670 3.413213 2.543198 0.511704 0.000000 0.000000 0.000000 -2.810673 0.063977 2.901335 1.637247 10.212212 -6.706635 -1.127135 -4.869667 0.631900 4.584731 3.238000 -74.938288 24.649613 -9.058573 2.979846 0.000000 0.000000 0.000000 -1.820831 -0.647806 2.103912 1.073989 3.791485 -2.145395 -0.777077 0.274157 0.481699 -10.217429 10.492386 80.900169 10.118537 21.616582 -2.581405 0.000000 0.000000 0.000000 
